<?xml version="1.0" encoding="utf-8"?>
<!-- Generator: Adobe Illustrator 22.1.0, SVG Export Plug-In . SVG Version: 6.00 Build 0)  -->
<svg version="1.1" id="Capa_1" xmlns="http://www.w3.org/2000/svg" xmlns:xlink="http://www.w3.org/1999/xlink" x="0px" y="0px"
	 viewBox="0 0 512 512" style="enable-background:new 0 0 512 512;" xml:space="preserve">
<g>
	<g>
		<path d="M166,449c-5.5,0-10,4.5-10,10s4.5,10,10,10s10-4.5,10-10S171.5,449,166,449z"/>
	</g>
</g>
<g>
	<g>
		<path d="M346,449H206c-5.5,0-10,4.5-10,10s4.5,10,10,10h140c5.5,0,10-4.5,10-10S351.5,449,346,449z"/>
	</g>
</g>
<g>
	<g>
		<path d="M466,19h-70.6l0.6-8.3c0.2-2.8-0.8-5.5-2.7-7.5c-1.9-2-4.5-3.2-7.3-3.2H126c-2.8,0-5.4,1.2-7.3,3.2
			c-1.9,2-2.9,4.8-2.7,7.5l0.6,8.3H46c-16.5,0-30,13.3-30,29.8v27.9c0,41.1,12.8,80.3,37.1,113.4c24.3,33.1,57.9,57.1,97,69.5
			l18,5.7c8.5,8,17.9,14.7,28.2,20.1c-0.2,1.6-0.4,3.1-0.4,4.7c0,13,8.4,24.2,20,28.3V343h-30c-16.5,0-30,13.5-30,30v33h-10
			c-16.5,0-30,13.5-30,30v66c0,5.5,4.5,10,10,10h260c5.5,0,10-4.5,10-10v-66c0-16.5-13.5-30-30-30h-10v-33c0-16.5-13.5-30-30-30h-30
			v-24.7c11.5-4.1,20-15.1,20-28.3c0-1.6-0.1-3.1-0.4-4.7c10.3-5.4,19.7-12.1,28.2-20.1c0.2,0,0.3-0.1,0.5-0.1l17.5-5.5
			c39.2-12.3,72.8-36.3,97.1-69.5c24.3-33.1,37.2-72.4,37.2-113.4V48.8C496,32.3,482.5,19,466,19z M383.8,181l7.3-102H436
			c-0.7,40.8-20.3,78.7-52.2,102.8C383.8,181.5,383.8,181.3,383.8,181z M128.2,181c0,0.3,0,0.5,0.1,0.8C96.2,157.7,76.7,120,76,79
			h44.9L128.2,181z M36,76.7V48.8c0-5.5,4.4-9.8,10-9.8h72l1.4,20H66c-5.5,0-10,4.5-10,10v7.7c0,55.2,29.5,105.5,77.3,132.2
			c2.9,9.7,7,19.1,12.1,27.8C79.5,211.2,36,148.2,36,76.7z M366,426c5.5,0,10,4.5,10,10v56H136v-56c0-5.5,4.5-10,10-10
			C148.2,426,361.7,426,366,426z M326,363c5.5,0,10,4.5,10,10v33H176v-33c0-5.5,4.5-10,10-10C202.1,363,310,363,326,363z M236,343
			v-23h40v23H236z M286,300h-60c-5.5,0-10-4.5-10-10c0-5.5,4.4-10,10-10h60c5.5,0,10,4.4,10,10C296,295.5,291.5,300,286,300z
			 M333.2,247.6c-8,8.2-17.1,14.9-27.2,20.1c-5.4-4.9-12.5-7.7-20-7.7h-60c-7.5,0-14.5,2.7-20.1,7.7c-9.3-4.9-17.9-11.1-25.5-18.5
			c-18.9-18.4-30.4-43.1-32.3-69.6L136.7,20h238.5l-11.4,159.6C362,205.5,351.1,229.4,333.2,247.6z M476,76.6
			c0,71.6-43.5,134.5-109.5,160c5.1-8.7,9.2-18,12.1-27.8c0,0,0,0,0,0c47.7-26.7,77.3-77.4,77.3-132.3V69c0-5.5-4.5-10-10-10h-53.5
			l1.4-20h72c5.6,0,10,4.3,10,9.8V76.6z"/>
	</g>
</g>
</svg>
