<?xml version="1.0" encoding="utf-8"?>
<!-- Generator: Adobe Illustrator 13.0.0, SVG Export Plug-In . SVG Version: 6.00 Build 14948)  -->
<!DOCTYPE svg PUBLIC "-//W3C//DTD SVG 1.1//EN" "http://www.w3.org/Graphics/SVG/1.1/DTD/svg11.dtd">
<svg version="1.1" id="Layer_1" xmlns="http://www.w3.org/2000/svg" xmlns:xlink="http://www.w3.org/1999/xlink" x="0px" y="0px"
	 width="841.89px" height="595.275px" viewBox="0 0 841.89 595.275" enable-background="new 0 0 841.89 595.275"
	 xml:space="preserve">
<g>
	<g>
		<path fill="#FFFFFF" d="M579.082,1.917c-17.561-6.942-38.393,5.003-61.914,35.495c-19.863,25.75-39.656,62.36-55.734,103.087
			c-8.676,21.996-15.857,44.284-21.055,65.167c-6.217-0.661-12.715-0.998-19.433-0.998c-6.72,0-13.216,0.338-19.431,0.998
			c-5.194-20.872-12.377-43.161-21.059-65.171c-16.077-40.724-35.869-77.332-55.733-103.083
			C301.2,6.918,280.369-5.022,262.816,1.914c-17.569,6.93-24.631,29.881-20.99,68.218c3.076,32.381,13.623,72.64,29.696,113.357
			c12.139,30.783,26.362,59.143,41.345,82.528c-14.009,32.185-15.427,76.623-4.188,132.27c6.202,30.715,14.101,57.015,23.482,78.27
			c-0.234,2.638-0.36,5.326-0.36,8.037c0,13.563,2.994,25.637,8.881,35.956c0.967,23.482,9.297,42.699,24.239,55.715
			c13.245,11.541,31.45,18.036,52.774,18.9c0.52,0.066,1.045,0.111,1.582,0.111c0.567,0,1.134-0.001,1.689-0.013h0.089
			c0.024,0,0.052,0,0.077,0c0.489,0.007,0.981,0.013,1.477,0.013c0.537,0,1.064-0.046,1.584-0.111
			c21.324-0.865,39.527-7.36,52.768-18.896c14.938-13.014,23.271-32.232,24.244-55.72c5.887-10.324,8.881-22.397,8.881-35.957
			c0-2.711-0.127-5.399-0.361-8.037c9.383-21.255,17.281-47.556,23.482-78.27c11.238-55.642,9.82-100.078-4.189-132.269
			c14.982-23.383,29.205-51.742,41.344-82.523c16.076-40.72,26.623-80.978,29.699-113.361
			C603.705,31.795,596.64,8.843,579.082,1.917z M294.673,174.354c-15.241-38.606-25.209-76.455-28.071-106.574
			c-3.085-32.497,3.431-41.96,5.353-42.718c1.906-0.748,13.125,1.705,33.063,27.552c18.477,23.952,37.046,58.409,52.287,97.018
			c8.109,20.562,14.827,41.318,19.731,60.765c-4.479,1.303-8.785,2.82-12.896,4.564c-5.303-18.05-12.883-39.83-21.662-62.082
			c-20.741-52.552-39.879-86.871-49.644-97.568c-4.632-5.077-12.501-5.433-17.58-0.802c-5.076,4.633-5.435,12.503-0.801,17.58
			c4.598,5.038,21.623,31.013,44.875,89.926c9.531,24.159,17.568,47.604,22.629,65.875c-5.372,4.187-10.234,8.944-14.58,14.232
			C315.619,222.251,304.461,199.179,294.673,174.354z M420.971,570.375c-17.015-0.282-36.258-4.817-47.033-21.254
			c12.445,5.376,27.29,8.414,44.015,8.889c0.436,0.046,0.877,0.071,1.325,0.071c0.49,0,0.981-0.001,1.473-0.014h0.555
			c0.03,0,0.059,0,0.089,0c0.405,0.007,0.813,0.014,1.217,0.014c0.449,0,0.891-0.025,1.326-0.071
			c16.721-0.475,31.564-3.513,44.006-8.886C457.177,565.542,437.966,570.083,420.971,570.375z M478.443,510.121
			c-9.436,14.497-29.756,22.686-57.222,23.062h-0.513c-27.467-0.369-47.791-8.547-57.244-23.039
			c-0.032-0.051-0.061-0.104-0.094-0.154c-4.431-6.856-6.682-15.398-6.682-25.398c0-2.88,0.182-5.708,0.538-8.406
			c0.012-0.078,0.021-0.159,0.03-0.239c4.171-31.896,31.496-56.44,63.688-57.235c32.189,0.795,59.515,25.336,63.689,57.229
			c0.008,0.081,0.02,0.163,0.029,0.244c0.359,2.697,0.539,5.524,0.539,8.406C485.201,494.648,482.929,503.234,478.443,510.121z
			 M508.816,393.358c-3.324,16.458-7.135,31.491-11.391,45.01c-4.625-7.811-10.42-14.956-17.264-21.144
			c-15.352-13.88-34.967-22.06-55.561-23.259c-0.65-0.104-1.311-0.174-1.99-0.174h-3.333c-0.679,0-1.341,0.069-1.989,0.174
			c-20.593,1.201-40.209,9.381-55.561,23.259c-6.843,6.187-12.638,13.333-17.263,21.144c-4.256-13.519-8.067-28.552-11.391-45.01
			c-10.88-53.874-9.186-95.096,5.034-122.517c0.011-0.02,0.02-0.04,0.031-0.061c5.967-11.458,14.275-20.604,24.706-27.192
			c8.78-5.559,19.358-9.514,31.448-11.757c8.112-1.511,17.078-2.279,26.651-2.279c9.572,0,18.541,0.766,26.66,2.28
			c12.076,2.24,22.656,6.194,31.443,11.745c10.43,6.596,18.742,15.75,24.701,27.2c0.002,0.002,0.004,0.005,0.004,0.007
			c0.008,0.016,0.016,0.032,0.023,0.047C518.001,298.263,519.697,339.484,508.816,393.358z M575.289,67.779
			c-2.861,30.12-12.83,67.968-28.072,106.579c-9.789,24.821-20.947,47.894-32.705,67.761c-4.346-5.288-9.209-10.046-14.582-14.239
			c5.063-18.279,13.1-41.722,22.631-65.866c8.816-22.339,18.002-42.967,26.564-59.654c3.137-6.114,0.723-13.615-5.393-16.751
			s-13.613-0.723-16.75,5.391c-9.053,17.646-18.33,38.465-27.57,61.878c-8.779,22.244-16.361,44.023-21.664,62.078
			c-4.111-1.743-8.416-3.26-12.893-4.56c4.906-19.457,11.623-40.214,19.729-60.762c15.242-38.612,33.813-73.07,52.289-97.022
			c19.939-25.848,31.154-28.309,33.07-27.547C571.857,25.819,578.375,35.282,575.289,67.779z"/>
	</g>
</g>
<g>
	<g>
		<path fill="#FFFFFF" d="M566.632,54.505c-5.076-4.631-12.947-4.271-17.58,0.803c-1.295,1.418-2.662,3.125-4.18,5.219
			c-4.037,5.562-2.799,13.344,2.764,17.379c2.209,1.6,4.764,2.372,7.297,2.372c3.852,0,7.648-1.784,10.082-5.138
			c1.188-1.636,1.971-2.566,2.42-3.057C572.068,67.009,571.708,59.139,566.632,54.505z"/>
	</g>
</g>
<g>
	<g>
		<path fill="#FFFFFF" d="M368.185,313.969c-18.868,0-34.219,15.345-34.219,34.206c0,6.871,5.571,12.443,12.443,12.443
			c6.873,0,12.444-5.572,12.444-12.443c0-5.139,4.186-9.319,9.332-9.319c5.14,0,9.32,4.181,9.32,9.319
			c0,6.871,5.571,12.443,12.443,12.443s12.444-5.572,12.444-12.443C402.392,329.313,387.046,313.969,368.185,313.969z"/>
	</g>
</g>
<g>
	<g>
		<path fill="#FFFFFF" d="M409.39,491.452l-10.888-18.142c-3.537-5.894-11.182-7.805-17.072-4.267
			c-5.893,3.538-7.803,11.18-4.266,17.073l10.888,18.142c2.334,3.89,6.454,6.043,10.681,6.043c2.179,0,4.388-0.573,6.392-1.777
			C411.017,504.988,412.927,497.345,409.39,491.452z"/>
	</g>
</g>
<g>
	<g>
		<path fill="#FFFFFF" d="M473.705,313.969c-18.861,0-34.207,15.345-34.207,34.206c0,6.871,5.572,12.443,12.443,12.443
			c6.873,0,12.445-5.572,12.445-12.443c0-5.139,4.18-9.319,9.318-9.319c5.148,0,9.334,4.181,9.334,9.319
			c0,6.871,5.57,12.443,12.443,12.443c6.871,0,12.443-5.572,12.443-12.443C507.923,329.313,492.572,313.969,473.705,313.969z"/>
	</g>
</g>
<g>
	<g>
		<path fill="#FFFFFF" d="M460.458,469.045c-5.891-3.534-13.535-1.628-17.072,4.267L432.5,491.454
			c-3.539,5.892-1.627,13.535,4.266,17.07c2.004,1.204,4.211,1.777,6.391,1.777c4.227,0,8.348-2.154,10.682-6.043l10.887-18.142
			C468.261,480.225,466.351,472.58,460.458,469.045z"/>
	</g>
</g>
</svg>
