<?xml version="1.0" encoding="UTF-8"?>
<svg width="111px" height="108px" viewBox="0 0 111 108" version="1.1" xmlns="http://www.w3.org/2000/svg" xmlns:xlink="http://www.w3.org/1999/xlink">
    <!-- Generator: Sketch 47.1 (45422) - http://www.bohemiancoding.com/sketch -->
    <title>Fill 16</title>
    <desc>Created with Sketch.</desc>
    <defs></defs>
    <g id="UI-Components" stroke="none" stroke-width="1" fill="none" fill-rule="evenodd">
        <path d="M64.4431539,98.76 L48.1531539,66.24 L99.8931539,14.5 L100.042154,14.36 L64.4431539,98.76 Z M110.513154,3.3 L110.542154,3.11 C110.562154,3.01 110.573154,2.91 110.573154,2.81 L110.573154,2.61 C110.573154,2.51 110.562154,2.41 110.553154,2.31 L110.523154,2.12 C110.492154,2.01 110.463154,1.91 110.423154,1.8 L110.373154,1.65 C110.323154,1.53 110.263154,1.41 110.193154,1.29 L110.142154,1.21 C110.053154,1.07 109.952154,0.94 109.833154,0.82 L109.722154,0.73 C109.643154,0.64 109.553154,0.57 109.452154,0.5 L109.303154,0.41 C109.213154,0.35 109.113154,0.29 109.013154,0.25 L108.933154,0.21 L108.843154,0.17 C108.733154,0.14 108.633154,0.11 108.533154,0.08 L108.343154,0.04 C108.233154,0.02 108.133154,0.01 108.022154,0.01 L107.843154,0 C107.723154,0 107.603154,0.01 107.472154,0.03 L107.352154,0.05 C107.202154,0.08 107.043154,0.12 106.893154,0.18 L1.70315391,42.11 C0.722153909,42.5 0.0531539087,43.43 0.00315390867,44.48 C-0.0478460913,45.54 0.523153909,46.53 1.46315391,47.01 L33.2331539,63.41 C34.5631539,64.1 36.1931539,63.58 36.8731539,62.26 C37.5531539,60.93 37.0331539,59.3 35.7131539,58.62 L9.19315391,44.93 L96.7131539,10.05 L42.9631539,63.8 C42.7721539,63.99 42.6331539,64.2 42.5131539,64.42 L42.4321539,64.56 C42.3331539,64.78 42.2531539,65.01 42.2131539,65.25 L42.2031539,65.36 C42.1731539,65.58 42.1731539,65.8 42.2031539,66.03 L42.2131539,66.15 C42.2531539,66.4 42.3331539,66.63 42.4321539,66.86 L42.4521539,66.92 L62.2431539,106.42 C62.7021539,107.33 63.6421539,107.91 64.6531539,107.91 L64.7421539,107.91 C65.8031539,107.87 66.7331539,107.23 67.1431539,106.26 L110.373154,3.74 L110.412154,3.63 C110.453154,3.52 110.483154,3.41 110.513154,3.3 L110.513154,3.3 Z" id="Fill-16" fill="#FFFFFE"></path>
    </g>
</svg>