<svg id="Calque_1" data-name="Calque 1" xmlns="http://www.w3.org/2000/svg" viewBox="0 0 960 390"><defs><style>.cls-1{fill:#fff;}</style></defs><title>traveldoo-white-transparent</title><g id="traveldoo-white-transparent"><path class="cls-1" d="M128,194.26H121.9a2.55,2.55,0,0,1-2-.95,3,3,0,0,1-.81-2V182.1a2.93,2.93,0,0,1,.81-2.16,2.74,2.74,0,0,1,2-.81H128V161.85a2.74,2.74,0,0,1,.94-2.09,2.93,2.93,0,0,1,2-.88H142a2.64,2.64,0,0,1,2,.88,3,3,0,0,1,.81,2.09v17.28h14.58a3,3,0,0,1,2.09.81,2.8,2.8,0,0,1,.88,2.16v9.19a2.91,2.91,0,0,1-.88,2,2.75,2.75,0,0,1-2.09.95H144.86v28.08c0,2.08.47,3.45,1.42,4.12a6.2,6.2,0,0,0,3.71,1,13,13,0,0,0,2.36-.27l2.77-.54c.9-.18,1.73-.39,2.5-.61s1.37-.43,1.82-.61a2.57,2.57,0,0,1,2.3,0,2.47,2.47,0,0,1,1.21,1.62l1.76,8.24A3,3,0,0,1,163,239c-.54.27-1.46.66-2.77,1.15a36.85,36.85,0,0,1-4.38,1.35c-1.62.41-3.36.77-5.2,1.08a30.51,30.51,0,0,1-5.2.47,20,20,0,0,1-8.64-1.62,13.57,13.57,0,0,1-5.34-4.38,17,17,0,0,1-2.7-6.42,38.84,38.84,0,0,1-.74-7.7Z"/><path class="cls-1" d="M183.21,182.1a2.71,2.71,0,0,1,.94-2.16,3.07,3.07,0,0,1,2-.81h5a2.79,2.79,0,0,1,2.7,2l2.3,6.08a23.52,23.52,0,0,1,2.3-2.84,20.44,20.44,0,0,1,3.71-3.11,22.71,22.71,0,0,1,5.06-2.49,19.08,19.08,0,0,1,6.48-1,32.12,32.12,0,0,1,5.27.41,16,16,0,0,1,4,1.15,5.27,5.27,0,0,1,2.36,1.89,2.59,2.59,0,0,1,.07,2.63L221.42,193c-.72,1.62-1.94,2.07-3.64,1.35a12.77,12.77,0,0,0-2.37-.88,14.29,14.29,0,0,0-3.44-.33,13.39,13.39,0,0,0-4.59.74,16,16,0,0,0-3.51,1.76,12.57,12.57,0,0,0-2.43,2.09,9.46,9.46,0,0,0-1.35,1.89v38.89a2.51,2.51,0,0,1-1,2.36,4.71,4.71,0,0,1-2.49.61h-10.4a2.93,2.93,0,0,1-2-.88,2.74,2.74,0,0,1-.94-2.09Z"/><path class="cls-1" d="M237,221.67a17.75,17.75,0,0,1,6.55-14,23.39,23.39,0,0,1,7.76-4.12,34.53,34.53,0,0,1,10.54-1.48,29.42,29.42,0,0,1,4.52.34c1.49.22,2.77.43,3.85.6l3.65.81q.26-6.08-1.69-8.91t-7-2.83c-1.44,0-3,.06-4.66.2s-3.3.32-4.92.54-3.13.47-4.53.74-2.54.54-3.44.81a2.09,2.09,0,0,1-2.36-.33,4.35,4.35,0,0,1-1.15-2.37l-1.35-7a2.76,2.76,0,0,1,2-3.78l2.5-.68c1.3-.35,2.93-.72,4.86-1.08s4.12-.67,6.55-.94a67.28,67.28,0,0,1,7.43-.41A32.51,32.51,0,0,1,278,179.61a15.81,15.81,0,0,1,7.16,5.33,20.79,20.79,0,0,1,3.51,8.57,62.59,62.59,0,0,1,.94,11.41v33.63a3,3,0,0,1-3,3h-4.59a2.52,2.52,0,0,1-1.42-.41,4.63,4.63,0,0,1-1.28-1.75l-1.75-4.19a32,32,0,0,1-7.5,5.27A25.43,25.43,0,0,1,258,243q-9.33,0-15.2-5.6T237,221.67Zm16.21,0a8.71,8.71,0,0,0,2.36,6.35,8.88,8.88,0,0,0,6.68,2.43,10.55,10.55,0,0,0,3.92-.75,18.8,18.8,0,0,0,3.44-1.75,12.85,12.85,0,0,0,2.57-2.16,6.34,6.34,0,0,0,1.28-2v-9.18c-.81-.27-1.71-.59-2.7-1l-2.9-.61a18.68,18.68,0,0,0-3.58-.33q-5.4,0-8.24,2.36A8.07,8.07,0,0,0,253.16,221.67Z"/><path class="cls-1" d="M304.87,182.78a2.9,2.9,0,0,1-.13-2.57,2.3,2.3,0,0,1,2.29-1.08h12.83a3.05,3.05,0,0,1,2.84,1.76l13,30.79h.27l13.77-30.79a2.88,2.88,0,0,1,1.62-1.49,8.49,8.49,0,0,1,2.3-.27H365a2.49,2.49,0,0,1,2.37,1.08,2.57,2.57,0,0,1-.21,2.57L339,241.38a4,4,0,0,1-1,1.15,2.65,2.65,0,0,1-1.69.47h-.81a2.62,2.62,0,0,1-1.68-.47,4,4,0,0,1-1-1.15Z"/><path class="cls-1" d="M380.76,210.33a33.79,33.79,0,0,1,2.3-12.49,31.82,31.82,0,0,1,6.48-10.33,31.18,31.18,0,0,1,10-7.09,30.29,30.29,0,0,1,12.69-2.64,29.32,29.32,0,0,1,11.28,2.16,27.87,27.87,0,0,1,9.05,6,28.44,28.44,0,0,1,6.07,9.12,29.41,29.41,0,0,1,2.23,11.61c0,.45,0,1.13-.07,2a14.22,14.22,0,0,1-.2,2,3.17,3.17,0,0,1-1,2,2.83,2.83,0,0,1-2,.81h-40a12.93,12.93,0,0,0,1.21,5.47,16.1,16.1,0,0,0,3.25,4.65,14.54,14.54,0,0,0,4.86,3.18,16.5,16.5,0,0,0,6.21,1.15,20,20,0,0,0,8-1.42,23.46,23.46,0,0,0,5.4-3.18,3.79,3.79,0,0,1,2.22-1,1.93,1.93,0,0,1,1.83,1l5.26,7a3,3,0,0,1,.81,2,3.07,3.07,0,0,1-1.08,2.1,38,38,0,0,1-9.79,6A33.49,33.49,0,0,1,412.36,243a31.41,31.41,0,0,1-12.83-2.56,30.39,30.39,0,0,1-10-7,31.72,31.72,0,0,1-6.48-10.4A34.7,34.7,0,0,1,380.76,210.33Zm43.08-7.84a11.13,11.13,0,0,0-3.58-7.69,11.85,11.85,0,0,0-8.44-3.11,13.27,13.27,0,0,0-9.12,3,12.37,12.37,0,0,0-4.12,7.76Z"/><path class="cls-1" d="M460.43,150a3.25,3.25,0,0,1,3-3h10.94a2.82,2.82,0,0,1,2,.94,2.86,2.86,0,0,1,.95,2v88.58a2.75,2.75,0,0,1-.95,2.09,2.91,2.91,0,0,1-2,.88H463.4a2.93,2.93,0,0,1-2-.88,2.74,2.74,0,0,1-.94-2.09Z"/><path class="cls-1" d="M497.7,210.33a36.37,36.37,0,0,1,2.22-12.83,31.23,31.23,0,0,1,6.28-10.33,28.94,28.94,0,0,1,9.72-6.89,31.32,31.32,0,0,1,12.7-2.5,41.87,41.87,0,0,1,8.78.88,47.91,47.91,0,0,1,6.21,1.69V150a3.25,3.25,0,0,1,3-3h10.94a2.76,2.76,0,0,1,2.09.94,3,3,0,0,1,.88,2v88.58a3,3,0,0,1-3,3h-5q-2,0-3-3l-1.62-4.86a26.37,26.37,0,0,1-5.27,4.72,34.49,34.49,0,0,1-6.41,3.18,24.51,24.51,0,0,1-8.71,1.41,28.77,28.77,0,0,1-11.82-2.43,27.89,27.89,0,0,1-9.45-6.82A32.51,32.51,0,0,1,500,223.42,36,36,0,0,1,497.7,210.33Zm45.91-13.64a21.64,21.64,0,0,0-3.51-1.76,31.24,31.24,0,0,0-4.12-1.21,24.11,24.11,0,0,0-5.34-.54,15.47,15.47,0,0,0-6.82,1.41,13.54,13.54,0,0,0-4.79,3.85,18,18,0,0,0-2.9,5.54,20.24,20.24,0,0,0-1,6.35,21.65,21.65,0,0,0,.95,6.34,17.67,17.67,0,0,0,2.77,5.54,13.6,13.6,0,0,0,4.59,3.91,13.22,13.22,0,0,0,6.41,1.49,15.18,15.18,0,0,0,5.34-.88,15.52,15.52,0,0,0,4.05-2.16A13.45,13.45,0,0,0,542,221.8a13.24,13.24,0,0,0,1.62-2.83Z"/><path class="cls-1" d="M580.74,210.19a31.52,31.52,0,0,1,2.5-12.49,33.24,33.24,0,0,1,6.82-10.33,31.91,31.91,0,0,1,10.12-7,31.32,31.32,0,0,1,24.85,0,32.87,32.87,0,0,1,17.08,17.35,31.52,31.52,0,0,1,2.5,12.49,32.32,32.32,0,0,1-2.5,12.69,32.67,32.67,0,0,1-6.89,10.4A33.56,33.56,0,0,1,625,240.37a30.66,30.66,0,0,1-24.85,0,32.88,32.88,0,0,1-16.94-17.49A32.32,32.32,0,0,1,580.74,210.19Zm15.66,0a17.92,17.92,0,0,0,1.29,6.82,18.17,18.17,0,0,0,3.44,5.54,15.71,15.71,0,0,0,5.13,3.71,15.59,15.59,0,0,0,12.69,0,16.43,16.43,0,0,0,5.2-3.71,17.43,17.43,0,0,0,3.51-5.54,17.92,17.92,0,0,0,1.29-6.82,17.13,17.13,0,0,0-1.29-6.62,16.77,16.77,0,0,0-8.71-9,15.59,15.59,0,0,0-12.69,0,16.12,16.12,0,0,0-5.13,3.64,17.61,17.61,0,0,0-3.44,5.4A17.13,17.13,0,0,0,596.4,210.19Z"/><path class="cls-1" d="M661,210.19a31.69,31.69,0,0,1,2.49-12.49,33.6,33.6,0,0,1,6.82-10.33,32,32,0,0,1,10.13-7,31.32,31.32,0,0,1,24.85,0,32.87,32.87,0,0,1,17.08,17.35,31.69,31.69,0,0,1,2.5,12.49,32.73,32.73,0,0,1-9.39,23.09,33.56,33.56,0,0,1-10.19,7.09,30.66,30.66,0,0,1-24.85,0,32.81,32.81,0,0,1-10.13-7.09,33.33,33.33,0,0,1-6.82-10.4A32.49,32.49,0,0,1,661,210.19Zm15.66,0a18.11,18.11,0,0,0,1.28,6.82,18.39,18.39,0,0,0,3.45,5.54,15.71,15.71,0,0,0,5.13,3.71,15.59,15.59,0,0,0,12.69,0,16.54,16.54,0,0,0,5.2-3.71,17.61,17.61,0,0,0,3.51-5.54,17.91,17.91,0,0,0,1.28-6.82,16.93,16.93,0,0,0-10-15.66,15.59,15.59,0,0,0-12.69,0,16.12,16.12,0,0,0-5.13,3.64,17.82,17.82,0,0,0-3.45,5.4A17.31,17.31,0,0,0,676.61,210.19Z"/><path class="cls-1" d="M839,77.14a2,2,0,0,0,0-.24,2.45,2.45,0,0,0,0-.38c0-.08,0-.17,0-.25s0-.26,0-.38l0-.24a3.84,3.84,0,0,0-.13-.41,1.27,1.27,0,0,0-.06-.18,2.73,2.73,0,0,0-.23-.45l-.06-.11h0a3.81,3.81,0,0,0-.39-.49l-.14-.12c-.11-.1-.22-.2-.34-.29a2,2,0,0,1-.19-.12c-.12-.07-.24-.14-.37-.2l-.1,0-.12,0-.39-.12-.24,0-.4,0h-.23a3.73,3.73,0,0,0-.46,0L835,73a3.09,3.09,0,0,0-.59.18l-132.89,53a3.41,3.41,0,0,0-.3,6.2l40.14,20.71a3.41,3.41,0,1,0,3.13-6.05L711,129.74,821.55,85.67l-.8.8-67.1,67.11a3.06,3.06,0,0,0-.57.78,1.4,1.4,0,0,0-.09.17,3,3,0,0,0-.29.88.62.62,0,0,1,0,.13,3.37,3.37,0,0,0,0,.84c0,.06,0,.11,0,.16a3.61,3.61,0,0,0,.28.9s0,.05,0,.08l25,49.89a3.4,3.4,0,0,0,3,1.88h.11a3.41,3.41,0,0,0,3-2.08L838.81,77.7a.57.57,0,0,0,0-.14A3.38,3.38,0,0,0,839,77.14Zm-58.19,120.6-20.58-41.08,47.07-47.08,18.29-18.29h0l.18-.18Z"/></g></svg>